PathFileType  4	(X/Y/Z) C:\Users\antoi\Documents\MyRepositories\mobilecap\ResultsAnalysis
DataRate	CameraRate	NumFrames	NumMarkers	Units	OrigDataRate	OrigDataStartFrame	OrigNumFrames
100.0	100.0	4	51	mm	100.0	69	137
Frame#	Time	r_knee			r_shank_antsup			r_ankle			r_calc			r_5meta			r_toe			L_knee			L_shank_antsup			L_ankle			L_calc			L_5meta			L_toe			r_sh2			r_sh3			r_sh4			L_sh2			L_sh3			r_thigh1			r_thigh2			r_thigh3			r_thigh4			r_thigh5			L_thigh1			L_thigh2			L_thigh3			L_thigh4			r.ASIS			r.PSIS			L.ASIS			L.PSIS			C7			R_Shoulder			L_Shoulder			R_Sternum			L_Sternum			R_humerus			R_elbow_med			R_elbow_lat			R_forearm			R_wrist_radius			R_wrist_ulna			L_humerus			L_elbow_med			L_elbow_lat			L_forearm			L_wrist_radius			L_wrist_ulna			R_HJC			L_HJC			R_HJC_reg			L_HJC_reg			
		X1	Y1	Z1	X2	Y2	Z2	X3	Y3	Z3	X4	Y4	Z4	X5	Y5	Z5	X6	Y6	Z6	X7	Y7	Z7	X8	Y8	Z8	X9	Y9	Z9	X10	Y10	Z10	X11	Y11	Z11	X12	Y12	Z12	X13	Y13	Z13	X14	Y14	Z14	X15	Y15	Z15	X16	Y16	Z16	X17	Y17	Z17	X18	Y18	Z18	X19	Y19	Z19	X20	Y20	Z20	X21	Y21	Z21	X22	Y22	Z22	X23	Y23	Z23	X24	Y24	Z24	X25	Y25	Z25	X26	Y26	Z26	X27	Y27	Z27	X28	Y28	Z28	X29	Y29	Z29	X30	Y30	Z30	X31	Y31	Z31	X32	Y32	Z32	X33	Y33	Z33	X34	Y34	Z34	X35	Y35	Z35	X36	Y36	Z36	X37	Y37	Z37	X38	Y38	Z38	X39	Y39	Z39	X40	Y40	Z40	X41	Y41	Z41	X42	Y42	Z42	X43	Y43	Z43	X44	Y44	Z44	X45	Y45	Z45	X46	Y46	Z46	X47	Y47	Z47	X48	Y48	Z48	X49	Y49	Z49	X50	Y50	Z50	X51	Y51	Z51	

69	0.68000000	679.37206	497.83921	-61.80467	640.81295	399.45317	-75.00054	346.93984	243.36124	-127.38759	264.43005	273.76191	-190.34959	345.72339	108.01499	-80.27814	413.58618	77.62293	-132.44703	855.25447	542.23412	-439.97640	867.66798	452.34619	-463.15230	863.14502	118.87487	-407.35517	793.00834	72.92554	-343.95807	975.83099	48.89252	-447.46361	1040.27012	79.44041	-391.57981	545.24591	338.33215	-63.82055	606.37928	456.02665	-36.18569	500.91989	407.64939	-45.08452	779.96185	451.66579	-442.12978	796.06010	331.78174	-437.35170	767.10505	821.23996	-52.94956	769.76735	710.86383	-50.86478	712.05436	686.14382	-25.32919	655.12272	816.87988	-32.74901	660.41232	703.12547	-41.09408	807.30509	844.06720	-428.44269	875.19798	720.78845	-432.82697	712.84973	791.30532	-440.54204	773.27366	669.76425	-446.17585	771.76745	1044.68526	-99.08061	589.49991	1048.34338	-160.00992	768.91469	1032.73767	-352.81004	582.71308	1044.10313	-270.63719	703.02296	1535.39305	-437.90732	799.28792	1534.48840	-269.05192	697.93729	1379.36538	-555.67362	807.42235	1437.16652	-387.16336	789.64971	1407.50960	-432.25751	797.17491	1424.58118	-134.73597	683.31062	1250.71715	-56.36055	719.78642	1306.39594	3.32184	838.29793	1181.70898	43.34820	909.75287	1116.43203	37.99188	879.37711	1113.46384	73.87833	630.00822	1245.00574	-562.31374	545.67486	1084.15215	-395.19101	519.37152	1071.42121	-472.35603	517.73513	996.54024	-484.51360	492.28140	822.96956	-442.40886	454.22876	836.94511	-432.43631	698.53808	924.59970	-111.67299	686.22639	921.46674	-318.24582	718.91016	957.15446	-128.30364	708.65055	950.74730	-295.51687	
70	0.69000000	702.84848	500.21549	-62.19483	664.61955	402.15639	-75.02726	367.70676	252.15320	-130.72015	288.91480	286.05224	-196.16098	359.21378	116.66912	-82.94678	427.27896	82.66929	-132.87112	860.48380	541.94309	-443.03942	872.33816	452.02762	-465.91608	863.61183	118.89103	-407.82050	793.06590	72.70442	-344.10315	975.79405	48.69403	-447.75555	1040.57729	78.56728	-391.72587	567.65309	342.97688	-64.54204	630.41267	459.74764	-37.07776	524.23764	413.39556	-47.34934	784.69917	452.68356	-444.34757	799.18350	332.65845	-438.93421	781.71318	824.37759	-54.57218	787.24397	714.20509	-51.30412	729.84559	688.27695	-26.16011	669.72609	817.52873	-36.00194	678.35497	704.28260	-42.74290	816.45669	844.18672	-433.62836	882.59425	719.99429	-438.07576	721.00264	792.69898	-443.29768	779.65699	670.32143	-449.06440	783.17748	1046.58150	-102.11501	601.16636	1050.31119	-163.28628	780.98563	1034.96698	-355.70602	594.63809	1046.80140	-273.91617	716.89166	1538.19417	-439.52774	812.04112	1536.89138	-269.98134	712.38785	1382.53006	-557.68365	821.23276	1439.84178	-388.33378	803.53834	1410.34333	-433.68417	807.74909	1426.27286	-136.02658	691.34215	1252.65036	-60.89506	727.36339	1307.41988	-0.14820	843.12219	1180.49022	41.25949	913.33367	1113.74790	36.63541	882.59365	1111.45846	72.20122	645.50967	1247.72704	-565.27067	562.28008	1084.79526	-399.50519	536.56879	1072.16346	-476.94144	536.29095	997.25904	-489.57975	513.89326	822.96654	-449.00241	475.54994	836.21294	-439.11755	709.87583	926.53625	-114.99952	698.01794	923.85805	-321.60393	730.59686	958.51199	-131.98944	720.73243	953.21193	-299.16037	
71	0.70000000	726.05279	503.39944	-62.47121	688.50839	405.51908	-75.01292	389.49481	260.13050	-134.00698	313.50725	295.97878	-201.46509	375.97483	124.68830	-85.63451	444.31849	88.28712	-133.66460	865.34017	541.78580	-445.71902	876.55300	451.84448	-468.27628	864.04779	118.92269	-408.25618	793.13956	72.57959	-344.25603	975.77721	48.48387	-447.99345	1040.82247	77.88908	-391.88874	590.43508	348.01159	-65.26635	654.42130	464.15509	-38.11049	547.75404	419.36235	-49.61612	789.03218	453.74213	-446.09852	802.04987	333.57424	-440.26369	795.86899	827.95594	-56.07796	804.29958	718.11396	-51.74036	747.26017	690.93470	-27.01239	684.01397	818.62670	-39.19901	695.94428	705.98792	-44.36689	825.38011	844.44510	-438.40575	889.68664	719.31002	-442.71681	728.98275	794.36039	-445.90154	785.80505	671.11081	-451.71995	794.32967	1048.75141	-105.05321	612.55567	1052.52142	-166.67797	792.84530	1037.32327	-358.56593	606.29388	1049.69605	-277.27510	730.56627	1541.37999	-440.83376	824.48563	1539.60187	-270.54196	726.67303	1386.18175	-559.49113	834.80376	1442.88496	-389.19481	817.28966	1413.59519	-434.83810	818.02398	1428.20073	-137.06089	699.14874	1254.73056	-65.35558	734.70495	1308.54007	-3.52534	847.57157	1179.32960	39.20835	916.41565	1111.04876	35.28540	885.31565	1109.51749	70.53356	660.87124	1250.93306	-568.18506	578.89155	1085.71045	-403.91459	553.78191	1073.22877	-481.61954	555.02411	998.36214	-494.83073	536.15563	823.28988	-456.08945	497.49976	835.66919	-446.21613	720.89522	928.74233	-118.26760	709.59506	926.40468	-324.90644	742.03778	960.09671	-135.55665	732.57453	955.83034	-302.72234	
72	0.71000000	748.95847	507.24573	-62.65365	712.38863	409.50828	-74.97993	412.26432	267.04609	-137.16414	337.92712	303.50359	-205.98896	396.13236	131.63865	-88.38000	464.84133	94.11852	-135.07313	869.92037	541.82656	-448.01865	880.27953	451.81054	-470.26163	864.45737	118.99110	-408.67304	793.23269	72.59164	-344.40769	975.78390	48.26176	-448.18281	1041.01423	77.36848	-392.06456	613.45369	353.35883	-66.05386	678.26968	469.15661	-39.33427	571.34834	425.43685	-51.91745	792.92959	454.88681	-447.37927	804.61739	334.55948	-441.31047	809.66620	831.98140	-57.57715	821.04990	722.58423	-52.28393	764.43910	694.11158	-27.92614	698.11410	820.15420	-42.29596	713.26698	708.14851	-45.99031	834.25589	844.99194	-442.56948	896.66484	718.88799	-446.59456	736.99592	796.40049	-448.41474	791.95561	672.25148	-454.22102	805.26024	1051.20387	-107.92492	623.69820	1054.98786	-170.12715	804.48501	1039.84676	-361.40374	617.72136	1052.76948	-280.66930	744.06016	1544.92438	-441.85091	836.64265	1542.57612	-270.76287	740.79779	1390.28454	-561.10417	848.10294	1446.25797	-389.77586	830.91896	1417.23018	-435.73478	828.01443	1430.33905	-137.86597	706.75543	1256.96148	-69.74695	741.83496	1309.76204	-6.81217	851.67850	1178.24869	37.19534	919.03757	1108.36112	33.95141	887.56580	1107.66573	68.87654	676.08621	1254.59008	-571.05956	595.51963	1086.88429	-408.41345	571.01370	1074.60916	-486.38309	573.91943	999.84683	-500.25765	559.01331	823.98798	-463.63015	520.03995	835.36458	-453.68547	731.66692	931.22496	-121.47502	720.97479	929.12487	-328.14848	753.23396	961.96898	-139.01541	744.19617	958.61755	-306.20151	
